<?xml version="1.0" encoding="utf-8"?>
<!-- Generator: Adobe Illustrator 26.0.1, SVG Export Plug-In . SVG Version: 6.00 Build 0)  -->
<svg version="1.1" id="Layer_1" xmlns="http://www.w3.org/2000/svg" xmlns:xlink="http://www.w3.org/1999/xlink" x="0px" y="0px"
	 viewBox="0 0 44 44" style="enable-background:new 0 0 44 44;" xml:space="preserve">
<style type="text/css">
	.st0{fill-rule:evenodd;clip-rule:evenodd;fill:#1769FF;}
</style>
<g id="Layer_1_00000170997656598430371880000007489634542280122793_">
</g>
<g>
	<path class="st0" d="M43.4,8.8C43.2,6,42.8,4,41.8,2.6c-1.2-1.2-3.6-1.7-6.4-1.9C31.3,0.3,26.8,0.2,22,0.2c-4.6,0-9.1,0.1-13.4,0.5
		C5.5,1,3.3,1.5,2.2,2.6C1.2,4,0.9,5.9,0.8,8.8c-0.4,3.7-0.4,8.7-0.5,13.6c0.1,4.9,0.2,9.8,0.5,13.4c0.3,3.2,0.5,4.6,1.5,5.8
		c1.2,1.1,3.2,1.9,6.4,2.2c3.9,0.4,7.8,0.3,13.4,0.4c5-0.1,9.7-0.1,13.4-0.4c3-0.1,5.2-1.1,6.3-2.2c0.8-1.1,1.3-2.9,1.6-5.6
		c0.4-3.6,0.4-8.7,0.5-13.6C43.8,17.4,43.7,12.8,43.4,8.8z M25.5,14.2h6.6v1.9h-6.6V14.2z M22.1,24.5c0,4.9-5.1,4.8-5.1,4.8H8.6v-16
		H17c2.4,0,4.5,1.4,4.5,4.3c0,2.9-2.5,3-2.5,3C22.3,20.6,22.1,24.5,22.1,24.5z M34.4,24.6H26c0,2.8,2.9,2.7,2.9,2.7
		c2.7,0,2.6-1.8,2.6-1.8h2.9c0,4.6-5.5,4.3-5.5,4.3c-6.6,0-6.2-6.2-6.2-6.2s0-6.2,6.2-6.2C35.4,17.4,34.4,24.3,34.4,24.6z"/>
	<path class="st0" d="M18.1,17.8c0-1.6-1.1-1.6-1.1-1.6h-4.7v3.5h4.4C17.4,19.7,18.1,19.4,18.1,17.8z"/>
	<path class="st0" d="M29.1,19.7c-2.5,0-2.9,2.5-2.9,2.5h5.4C31.6,22.2,31.6,19.7,29.1,19.7z"/>
	<path class="st0" d="M17,22.2h-4.7v4.3h4.1c0,0,0.2,0,0.3,0c0.7,0,1.9-0.2,1.9-2.1C18.6,22.2,17,22.2,17,22.2z"/>
</g>
</svg>
