<?xml version="1.0" encoding="utf-8"?>
<!-- Generator: Adobe Illustrator 26.0.1, SVG Export Plug-In . SVG Version: 6.00 Build 0)  -->
<svg version="1.1" id="Layer_1" xmlns="http://www.w3.org/2000/svg" xmlns:xlink="http://www.w3.org/1999/xlink" x="0px" y="0px"
	 viewBox="0 0 44 44" style="enable-background:new 0 0 44 44;" xml:space="preserve">
<g id="Layer_1_00000091702306830220659170000011722963473334361735_">
</g>
<path d="M24.3,21.4c0-0.8-0.4-1.5-1.2-1.9c-0.8-0.4-1.5-0.4-2.2,0c-0.8,0.4-1.2,1.1-1.2,2.1s0.4,1.7,1.2,2.1
	c0.7,0.4,1.5,0.4,2.3-0.1S24.5,22.2,24.3,21.4z M26.7,20.8c0.1,1.2-0.1,2.5-1.1,3.4c-0.8,1.1-1.9,1.7-3.2,1.8S20,25.8,18.9,25
	c-1-0.8-1.5-1.9-1.7-3.3c0-1,0.1-1.8,0.7-2.6c0.6-0.8,1.2-1.5,2.1-1.8c1.4-0.6,2.8-0.6,4,0.3C25.6,18.2,26.4,19.5,26.7,20.8z
	 M31.5,9.7c-0.4,0.4-0.8,0.7-1.5,1c-0.7,0.3-1.1,0.4-1.5,0.4s-1,0.1-1.8,0.3c-3,0.4-6.1,0.4-9.2,0c-0.8-0.1-1.4-0.1-1.8-0.3
	c-0.4,0-0.8-0.3-1.5-0.4c-0.7-0.3-1.2-0.6-1.7-1C12.8,9.3,13,9,13.6,8.9c0.4-0.3,0.8-0.4,1.1-0.4s0.8-0.1,1.4-0.3
	c3.9-0.7,7.7-0.7,11.7,0c0.7,0.1,1.1,0.1,1.5,0.3c0.3,0,0.7,0.3,1.2,0.4C30.9,9,31.2,9.3,31.5,9.7z M32.7,31c0-0.1,0-0.4,0.1-0.8
	c0.1-0.4,0.1-0.7,0.1-1s-0.3-0.4-0.6-0.4c-3,2.1-6.6,3-10.5,3s-7.4-1-10.5-3l-0.4,0.3L11,29.4c0.6,2.9,0.8,5,1.2,6.1
	c1,1.5,2.9,2.6,5.8,3c4.8,0.8,8.8,0.4,12.3-1.5c0.7-0.4,1.1-0.8,1.4-1.5c0.3-0.7,0.6-1.4,0.7-2.5C32.6,32.1,32.6,31.4,32.7,31z
	 M36.4,11.2c0.1-1,0.1-1.8-0.3-2.2c-0.8-1.1-2.3-1.9-4.4-2.5C27.6,5.3,22.9,5,17.8,5.4c-2.5,0.3-4.7,0.7-6.5,1.4
	C10.5,7.1,10,7.3,9.6,7.5C9.2,7.6,8.8,8,8.2,8.4c-0.6,0.4-0.7,1-0.8,1.5c0.1,1.2,0.3,2.6,0.6,4c0.3,1.4,0.6,3,0.8,5s0.6,3.3,0.7,4
	c0,0.1,0,0.4,0.1,0.8c0.1,0.4,0.1,0.8,0.1,1.1c0,0.1,0.1,0.4,0.3,0.8c0.1,0.3,0.4,0.6,0.7,0.8c2.1,1.5,4.7,2.5,8.1,2.9
	c5,0.6,9.2,0,12.7-1.8c0.4-0.3,0.8-0.4,1.1-0.7c0.3-0.3,0.6-0.4,0.8-0.8c0.3-0.4,0.6-0.7,0.6-1.1C35.1,19.6,35.9,15.1,36.4,11.2z
	 M44,8.3v27.5c0,2.3-0.8,4.3-2.5,5.8c-1.5,1.7-3.4,2.5-5.8,2.5H8.2c-2.3,0-4.3-0.8-5.8-2.5C0.8,40-0.1,38-0.1,35.8V8.3
	C-0.1,6,0.8,4,2.4,2.5S6,0.1,8.2,0.1h27.5c2.3,0,4.3,0.8,5.8,2.5S44,6,44,8.3z"/>
</svg>
