<?xml version="1.0" encoding="utf-8"?>
<!-- Generator: Adobe Illustrator 26.0.1, SVG Export Plug-In . SVG Version: 6.00 Build 0)  -->
<svg version="1.1" id="Layer_1" xmlns="http://www.w3.org/2000/svg" xmlns:xlink="http://www.w3.org/1999/xlink" x="0px" y="0px"
	 viewBox="0 0 44 44" style="enable-background:new 0 0 44 44;" xml:space="preserve">
<style type="text/css">
	.st0{fill:#1886C9;}
</style>
<g id="Layer_1_00000170267101170592900330000009144180858940432273_">
</g>
<g>
	<path class="st0" d="M19,23.7c-2.4,0-4.5,1.6-4.5,3.7c0,1.3,1,2.3,1.8,2.8c0.6,0.5,1.3,1,2.8,1c2.6,0,5.8-2.9,7.3-2.8
		c1.2,0.2,2.7,2.7,3.7,2.8c0.8,0,1.5-0.4,1.8-1.4c0.6-1,0.7-2.4,0.7-3.3s-0.6-2.8-1.8-2.8s-3.3,2.8-4.5,2.8
		C24.8,26.5,22.2,23.7,19,23.7z"/>
	<path class="st0" d="M24.3,31.3c0.5-0.4,0.9-0.7,1.7-0.7s0.9,0.3,1.2,0.7c0.3,0.4,0.3,0.4,0.4,0.3c0.1-0.1,0.2-0.4,0.1-0.5
		c-0.3-0.3-0.4-0.9-0.7-1c-0.2-0.3-0.8-0.3-1.2-0.3c-0.4,0-0.7,0-1.1,0.1c-0.5,0.3-0.9,0.7-1.2,1c-0.3,0.2-0.4,0.4,0.1,0.7
		C23.6,31.8,23.9,31.7,24.3,31.3z"/>
	<path class="st0" d="M28,32.9c0-0.1-0.1-0.2-0.4-0.1c-0.5,0.6-1.6,1-3.4,1s-2.5-0.3-3-0.7c0-0.1,0-0.1-0.1-0.1
		c-0.1,0-0.3,0-0.4,0.1c-0.1,0.1-0.1,0.4,0,0.5c1.1,0.9,3.1,0.9,4.5,0.8c1.4-0.1,2.7-1,2.8-1.1C28.2,33.1,28.2,32.9,28,32.9z"/>
	<path class="st0" d="M40.3,0H3.7C1.7,0,0,1.7,0,3.7v36.7C0,42.3,1.7,44,3.7,44h36.7c2.1,0,3.7-1.7,3.7-3.7V3.7
		C44,1.7,42.3,0,40.3,0z M22,35.8c-6.4,0-12-5.1-12-12c0-6.9,4.7-9.8,6.1-10.5c1.1-0.5,2.5-1.2,3.9-2.3c0.7-0.6,0.9-1,1-2.8
		c1,1.2,2,2.2,2.8,2.8c1.2,1,3.2,1.8,4.5,2.8c1,0.5,5.7,3.3,5.7,10.3S28.5,35.8,22,35.8z"/>
</g>
</svg>
