<?xml version="1.0" encoding="utf-8"?>
<!-- Generator: Adobe Illustrator 26.0.1, SVG Export Plug-In . SVG Version: 6.00 Build 0)  -->
<svg version="1.1" id="Layer_1" xmlns="http://www.w3.org/2000/svg" xmlns:xlink="http://www.w3.org/1999/xlink" x="0px" y="0px"
	 viewBox="0 0 44 44" style="enable-background:new 0 0 44 44;" xml:space="preserve">
<style type="text/css">
	.st0{fill:#FFFFFF;}
	.st1{fill:#267CB5;}
</style>
<g id="Layer_1_00000093172285804602056880000001965299786047919543_">
</g>
<g>
	<g>
		<path class="st0" d="M22,9.6"/>
	</g>
</g>
<path class="st1" d="M22,0C9.8,0,0,9.8,0,22s9.8,22,22,22s22-9.8,22-22S34.2,0,22,0z M9.6,13.3h24.8c0.3,0,0.6,0.2,0.7,0.3L22,24.9
	L8.9,13.6C9,13.4,9.3,13.3,9.6,13.3z M35.8,29.1c0,0.9-0.7,1.4-1.4,1.4H9.6c-0.8,0-1.4-0.7-1.4-1.4V14.8l12.8,11
	c0.6,0.4,1.3,0.4,1.8,0l13-10.9V29.1z"/>
</svg>
