<?xml version="1.0" encoding="utf-8"?>
<!-- Generator: Adobe Illustrator 26.0.1, SVG Export Plug-In . SVG Version: 6.00 Build 0)  -->
<svg version="1.1" id="Layer_1" xmlns="http://www.w3.org/2000/svg" xmlns:xlink="http://www.w3.org/1999/xlink" x="0px" y="0px"
	 viewBox="0 0 44 44" style="enable-background:new 0 0 44 44;" xml:space="preserve">
<style type="text/css">
	.st0{fill-rule:evenodd;clip-rule:evenodd;}
	.st1{fill-rule:evenodd;clip-rule:evenodd;fill:#3D5A98;}
</style>
<desc>Created with Sketch.</desc>
<g id="Icon_x2F_Social_x2F_facebook-color">
	<path id="Shape" class="st0" d="M30.4,44V27h5.7l0.9-6.6h-6.6v-4.2c0-1.9,0.5-3.2,3.3-3.2l3.5,0V6.9c-0.6-0.1-2.7-0.3-5.1-0.3
		c-5.1,0-8.5,3.1-8.5,8.8v4.9h-5.7V27h5.7v17H30.4z M2.4,44C1.1,44,0,42.9,0,41.6V2.4C0,1.1,1.1,0,2.4,0h39.1C42.9,0,44,1.1,44,2.4
		v39.1c0,1.3-1.1,2.4-2.4,2.4H2.4z"/>
	<path id="Shape-Copy" class="st1" d="M30.4,44V27h5.7l0.9-6.6h-6.6v-4.2c0-1.9,0.5-3.2,3.3-3.2l3.5,0V6.9c-0.6-0.1-2.7-0.3-5.1-0.3
		c-5.1,0-8.5,3.1-8.5,8.8v4.9h-5.7V27h5.7v17H30.4z M2.4,44C1.1,44,0,42.9,0,41.6V2.4C0,1.1,1.1,0,2.4,0h39.1C42.9,0,44,1.1,44,2.4
		v39.1c0,1.3-1.1,2.4-2.4,2.4H2.4z"/>
</g>
</svg>
