<?xml version="1.0" encoding="utf-8"?>
<!-- Generator: Adobe Illustrator 26.0.1, SVG Export Plug-In . SVG Version: 6.00 Build 0)  -->
<svg version="1.1" id="Layer_1" xmlns="http://www.w3.org/2000/svg" xmlns:xlink="http://www.w3.org/1999/xlink" x="0px" y="0px"
	 viewBox="0 0 44 44" style="enable-background:new 0 0 44 44;" xml:space="preserve">
<style type="text/css">
	.st0{fill-rule:evenodd;clip-rule:evenodd;fill:#ED1983;}
</style>
<g id="Layer_1_00000026850042332817499940000007635850759683527860_">
</g>
<path class="st0" d="M28.2,26.4c-2.2,0-4-1.8-4-4s1.8-4,4-4s4,1.8,4,4C32.3,24.6,30.5,26.4,28.2,26.4z M28.2,17.6
	c-2.6,0-4.8,2.2-4.8,4.8s2.2,4.8,4.8,4.8S33,25,33,22.4S30.8,17.6,28.2,17.6z M21.3,22.4c0-2.6-2.2-4.8-4.8-4.8s-4.8,2.2-4.8,4.8
	s2.2,4.8,4.8,4.8S21.3,25,21.3,22.4z M0,0h44v44H0V0z"/>
</svg>
