<?xml version="1.0" encoding="utf-8"?>
<!-- Generator: Adobe Illustrator 26.0.1, SVG Export Plug-In . SVG Version: 6.00 Build 0)  -->
<svg version="1.1" id="Layer_1" xmlns="http://www.w3.org/2000/svg" xmlns:xlink="http://www.w3.org/1999/xlink" x="0px" y="0px"
	 viewBox="0 0 44 44" style="enable-background:new 0 0 44 44;" xml:space="preserve">
<style type="text/css">
	.st0{fill-rule:evenodd;clip-rule:evenodd;fill:#FC6D26;}
</style>
<g id="Layer_1_00000170997656598430371880000007489634542280122793_">
</g>
<g>
	<path class="st0" d="M43.4,8.7c-0.3-2.7-0.7-4.9-1.7-6.1c-1.2-1.1-3.6-1.6-6.3-1.7c-4-0.5-8.6-0.6-13.4-0.6c-4.5,0-9.1,0-13.4,0.5
		C5.4,1.1,3.4,1.6,2,2.6C1.2,3.9,0.9,5.8,0.6,8.7C0.3,12.4,0.3,17.2,0,22.2c0.2,5,0.3,9.8,0.6,13.4c0.3,3,0.5,4.4,1.5,5.5
		c1.4,1.1,3.3,1.9,6.5,2.2c4,0.4,7.8,0.3,13.4,0.4c5.1-0.1,9.7-0.1,13.4-0.4c3-0.1,5.2-1.1,6.3-2.2c0.9-1.1,1.4-2.8,1.7-5.6
		c0.5-3.5,0.5-8.4,0.6-13.4C43.8,17.2,43.7,12.6,43.4,8.7z M34.7,24.5l-12.5,9.1l-0.1,0l0,0L22,33.4L9.7,24.5
		c-0.4-0.3-0.5-0.7-0.4-1.1l1.4-4.4l2.8-8.8c0-0.2,0.2-0.3,0.3-0.3c0.1,0,0.1,0,0.2,0c0.2,0,0.4,0.1,0.5,0.3l2.9,8.8h9.5l2.7-8.8
		c0-0.2,0.2-0.3,0.3-0.3c0.1,0,0.2,0,0.3,0c0.1,0,0.2,0,0.2,0c0.1,0,0.3,0.1,0.3,0.3l2.8,8.8l1.4,4.4c0,0.1,0,0.2,0,0.3
		C34.9,24,34.9,24.4,34.7,24.5z"/>
	<polygon class="st0" points="22.1,33.5 22.1,33.6 22.1,33.5 	"/>
</g>
</svg>
