<?xml version="1.0" encoding="utf-8"?>
<!-- Generator: Adobe Illustrator 26.0.1, SVG Export Plug-In . SVG Version: 6.00 Build 0)  -->
<svg version="1.1" id="Layer_1" xmlns="http://www.w3.org/2000/svg" xmlns:xlink="http://www.w3.org/1999/xlink" x="0px" y="0px"
	 viewBox="0 0 44 44" style="enable-background:new 0 0 44 44;" xml:space="preserve">
<style type="text/css">
	.st0{fill:url(#SVGID_1_);}
	.st1{fill:url(#SVGID_00000178892384060966142130000014275473416591934626_);}
	.st2{fill:url(#SVGID_00000096760447795940137670000005193489406083878569_);}
</style>
<desc>Created with Sketch.</desc>
<g>
	
		<linearGradient id="SVGID_1_" gradientUnits="userSpaceOnUse" x1="-575.0341" y1="9.2927" x2="-574.9631" y2="9.2927" gradientTransform="matrix(-178.8403 590.843 -590.843 -178.8403 -97319.9844 341415.5625)">
		<stop  offset="0" style="stop-color:#5660AB"/>
		<stop  offset="0.26" style="stop-color:#883E97"/>
		<stop  offset="0.66" style="stop-color:#E32226"/>
		<stop  offset="1" style="stop-color:#FEDA79"/>
	</linearGradient>
	<path class="st0" d="M21.9,0.2c-6,0-6.7,0-8.9,0.2c-2.4,0-4,0.4-5.4,0.9C6.3,1.8,5.1,2.6,3.8,3.8s-2,2.5-2.5,3.8
		C0.7,9.1,0.4,10.7,0.4,13c-0.2,2.2-0.2,2.9-0.2,8.9s0,6.7,0.2,8.9c0.2,2.4,0.5,3.8,1.1,5.2c0.4,1.4,1.1,2.7,2.4,4s2.4,2,3.8,2.5
		s2.9,0.9,5.2,1.1c2.4,0,3.1,0,9,0s6.7,0,8.9-0.2c2.4-0.2,3.8-0.5,5.2-1.1c1.4-0.5,2.7-1.3,3.8-2.5c1.3-1.3,2-2.4,2.5-3.8
		c0.5-1.4,0.9-2.9,1.1-5.2c0.2-2.2,0.2-2.9,0.2-8.9s0-6.7-0.2-8.9c-0.2-2.4-0.5-3.8-1.1-5.2c-0.4-1.4-1.1-2.7-2.4-4s-2.4-2-3.8-2.5
		s-2.9-0.9-5.2-1.1C28.6,0.2,27.9,0.2,21.9,0.2L21.9,0.2z M21.9,4.2c5.8,0,6.5,0,8.7,0.2c2.2,0.2,3.3,0.4,4,0.7
		c1.1,0.4,1.8,0.9,2.5,1.6c0.7,0.7,1.3,1.4,1.6,2.5c0.4,0.7,0.7,2,0.7,4c0.2,2.4,0.2,2.9,0.2,8.7s0,6.5-0.2,8.7
		c-0.2,2.2-0.4,3.3-0.7,4c-0.4,1.1-0.9,1.8-1.6,2.5c-0.7,0.7-1.4,1.3-2.5,1.6c-0.7,0.4-2,0.7-4,0.7c-2.4,0.2-2.9,0.2-8.7,0.2
		s-6.5,0-8.7-0.2c-2.2-0.2-3.3-0.4-4-0.7c-1.1-0.4-1.8-0.9-2.5-1.6c-0.7-0.7-1.3-1.4-1.6-2.5c-0.4-0.7-0.7-2-0.7-4
		c-0.2-2.4-0.2-2.9-0.2-8.7s0-6.5,0.2-8.7c0-2.2,0.4-3.4,0.5-4.2C5.3,8,5.8,7.3,6.5,6.5c0.9-0.7,1.6-1.1,2.5-1.6
		c0.7-0.2,2-0.5,4.2-0.7C15.4,4.2,16.1,4.2,21.9,4.2z"/>
	
		<linearGradient id="SVGID_00000087394807469646358530000003686182261058217103_" gradientUnits="userSpaceOnUse" x1="-575.0341" y1="9.2925" x2="-574.9631" y2="9.2925" gradientTransform="matrix(-178.8403 590.843 -590.843 -178.8403 -97319.9844 341415.5625)">
		<stop  offset="0" style="stop-color:#5660AB"/>
		<stop  offset="0.26" style="stop-color:#883E97"/>
		<stop  offset="0.66" style="stop-color:#E32226"/>
		<stop  offset="1" style="stop-color:#FEBF10"/>
	</linearGradient>
	<path style="fill:url(#SVGID_00000087394807469646358530000003686182261058217103_);" d="M21.9,29.1c-4,0-7.2-3.3-7.2-7.2
		s3.3-7.2,7.2-7.2s7.2,3.3,7.2,7.2S25.9,29.1,21.9,29.1z M21.9,10.7c-6.1,0-11.2,5.1-11.2,11.2s5.1,11.2,11.2,11.2
		S33.1,28,33.1,21.9S28,10.7,21.9,10.7z"/>
	
		<linearGradient id="SVGID_00000036247557977374148040000014171671238659880584_" gradientUnits="userSpaceOnUse" x1="-575.0341" y1="9.28" x2="-574.9631" y2="9.28" gradientTransform="matrix(-178.8403 590.843 -590.843 -178.8403 -97319.9844 341415.5625)">
		<stop  offset="0" style="stop-color:#5660AB"/>
		<stop  offset="0.26" style="stop-color:#883E97"/>
		<stop  offset="0.66" style="stop-color:#E32226"/>
		<stop  offset="1" style="stop-color:#FEBF10"/>
	</linearGradient>
	<path style="fill:url(#SVGID_00000036247557977374148040000014171671238659880584_);" d="M36,10.3c0,1.4-1.1,2.5-2.5,2.5
		c-1.4,0-2.5-1.1-2.5-2.5s1.1-2.5,2.5-2.5C34.9,7.8,36,8.9,36,10.3z"/>
</g>
</svg>
