<?xml version="1.0" encoding="utf-8"?>
<!-- Generator: Adobe Illustrator 26.0.1, SVG Export Plug-In . SVG Version: 6.00 Build 0)  -->
<svg version="1.1" id="Layer_1" xmlns="http://www.w3.org/2000/svg" xmlns:xlink="http://www.w3.org/1999/xlink" x="0px" y="0px"
	 viewBox="0 0 44 44" style="enable-background:new 0 0 44 44;" xml:space="preserve">
<style type="text/css">
	.st0{fill-rule:evenodd;clip-rule:evenodd;fill:#007BB5;}
</style>
<desc>Created with Sketch.</desc>
<g id="Icon_x2F_Social_x2F_linkedin-color">
	<path id="Shape" class="st0" d="M17.8,35.2h5.5v-8.8c0-2.4,0.4-4.6,3.3-4.6s2.9,2.8,2.9,4.8v8.6H35v-9.7c0-4.8-1.1-8.4-6.6-8.4
		c-2.8,0-4.6,1.5-5.3,2.9l0,0v-2.8h-5.3V35.2z M11.6,8.4c-1.8,0-3.3,1.5-3.3,3.3S9.7,15,11.6,15s3.3-1.5,3.3-3.3S13.4,8.4,11.6,8.4
		L11.6,8.4z M8.8,35.2h5.5v-18H8.8V35.2z M2.4,44C1.1,44,0,42.9,0,41.6V2.4C0,1.1,1.1,0,2.4,0h39.2C42.9,0,44,1.1,44,2.4v39.2
		c0,1.3-1.1,2.4-2.4,2.4C41.6,44,2.4,44,2.4,44z"/>
</g>
</svg>
