<?xml version="1.0" encoding="utf-8"?>
<!-- Generator: Adobe Illustrator 26.0.1, SVG Export Plug-In . SVG Version: 6.00 Build 0)  -->
<svg version="1.1" id="Layer_1" xmlns="http://www.w3.org/2000/svg" xmlns:xlink="http://www.w3.org/1999/xlink" x="0px" y="0px"
	 viewBox="0 0 44 44" style="enable-background:new 0 0 44 44;" xml:space="preserve">
<style type="text/css">
	.st0{fill:#E71D27;}
</style>
<g>
	<path class="st0" d="M22.1,0.2c-12,0-21.9,9.8-21.9,21.9c0,9.3,5.7,17.2,13.9,20.4c-0.1-1.8-0.4-4.4,0.1-6.3
		c0.4-1.6,2.6-10.9,2.6-10.9s-0.7-1.4-0.7-3.3c0-3,1.8-5.3,4-5.3c1.9,0,2.7,1.4,2.7,3.1c0,1.9-1.2,4.6-1.8,7.2c-0.5,2.2,1.1,4,3.3,4
		c3.8,0,6.8-4.1,6.8-10c0-5.2-3.8-8.9-9.2-8.9c-6.3,0-9.8,4.6-9.8,9.4c0,1.9,0.7,3.8,1.6,5.1c0.1,0.3,0.1,0.4,0.1,0.7
		c-0.1,0.7-0.5,2.2-0.5,2.5c-0.3,0.4-0.5,0.5-1,0.3c-2.7-1.2-4.4-5.3-4.4-8.5c0-6.8,5.1-13.3,14.5-13.3c7.7,0,13.5,5.5,13.5,12.6
		c0,7.5-4.8,13.7-11.3,13.7c-2.2,0-4.2-1.1-5.1-2.5c0,0-1.1,4.2-1.4,5.2c-0.5,1.9-1.8,4.2-2.7,5.7c2.1,0.7,4.2,1,6.4,1
		c12,0,21.9-9.8,21.9-21.9S34.2,0.2,22.1,0.2L22.1,0.2z"/>
</g>
</svg>
