<?xml version="1.0" encoding="utf-8"?>
<!-- Generator: Adobe Illustrator 26.0.1, SVG Export Plug-In . SVG Version: 6.00 Build 0)  -->
<svg version="1.1" id="Layer_1" xmlns="http://www.w3.org/2000/svg" xmlns:xlink="http://www.w3.org/1999/xlink" x="0px" y="0px"
	 viewBox="0 0 44 44" style="enable-background:new 0 0 44 44;" xml:space="preserve">
<style type="text/css">
	.st0{fill:#5BA6A8;}
</style>
<g id="Layer_1_00000026854400712484158040000005762043881149739651_">
</g>
<g>
	<path class="st0" d="M33.5,7.2H10.5c-1.2,0-2.2,1-2.2,2.2v13.8c1,0.6,2,1.1,2.8,1.3c2.2,0.5,5.9,0.7,7.6,0.7
		c1.6-0.1,2.5,0.6,3.4,1.4c0.1,0.1,0.1,0.1,0.2,0.2c0-0.4,0-0.6,0-0.6c0-0.7,2.1-1.1,3.2-1.1c1.2,0,4.7,0,5.4,0
		c0.4,0,2.9-0.8,4.7-1.7v-14C35.7,8.1,34.7,7.2,33.5,7.2z M17.2,23.2c-2.1,0-3.7-1.7-3.8-3.8c0-2.1,1.7-3.8,3.8-3.8s3.8,1.7,3.8,3.8
		C21,21.5,19.3,23.2,17.2,23.2z M27.2,23.2c-2.1,0-3.8-1.7-3.8-3.8c0-2.1,1.7-3.8,3.8-3.8s3.8,1.7,3.8,3.8
		C31,21.5,29.4,23.2,27.2,23.2z"/>
	<path class="st0" d="M38.5,0h-33C2.5,0,0,2.5,0,5.5v33c0,3,2.5,5.5,5.5,5.5h33c3,0,5.5-2.5,5.5-5.5v-33C44,2.5,41.5,0,38.5,0z
		 M38.7,23.5c-1.3,2.5-4.1,3.3-6.7,4.7c0,2,0,4.7,0,5.4s-1,5.2-4.7,5.2c-3.7,0-5-2.1-5-3.1c0-0.4,0-2.8,0-5.1
		c-0.4-0.1-0.7-0.2-1.1-0.4c0,2,0,4.5,0,5.4c0,0.9-1.4,2.2-3.2,2.2c-1.8,0-5.4-2.7-5.4-4.3c0-1.8,0-5.9,0-5.9s-4.9-1.9-6.1-3.4
		c-1.2-1.4-1.7-2-1.4-2.8c0.1-0.3,0.6-0.1,1.3,0.3V9.3c0-2.3,1.9-4.3,4.3-4.3h22.9c2.3,0,4.3,1.9,4.3,4.3v12.6
		C38.8,20.8,39.8,21.3,38.7,23.5z"/>
</g>
</svg>
