<?xml version="1.0" encoding="UTF-8"?><svg id="x" xmlns="http://www.w3.org/2000/svg" viewBox="0 0 120 150"><defs><style>.cls-1{fill:#fff;stroke-width:0px;}</style></defs><path class="cls-1" d="m60.48,140.18h-.04c-19.69-.13-34.83-6.63-45.01-19.3C6.37,109.6,1.71,93.9,1.55,74.23v-.1c.16-19.67,4.82-35.37,13.88-46.65,10.17-12.68,25.31-19.17,45-19.3h.08c15.1.1,27.73,3.98,37.54,11.53,9.23,7.1,15.72,17.21,19.3,30.07l-11.22,3.13c-6.07-21.78-21.43-32.91-45.67-33.09-16,.11-28.1,5.14-35.97,14.95-7.37,9.18-11.18,22.44-11.31,39.4.14,16.97,3.95,30.23,11.31,39.4,7.87,9.8,19.97,14.83,35.97,14.94,14.42-.1,23.97-3.47,31.91-11.24,9.06-8.88,8.89-19.76,5.99-26.38-1.71-3.9-4.81-7.15-8.98-9.62-1.05,7.43-3.41,13.45-7.06,17.99-4.87,6.06-11.77,9.37-20.51,9.84-6.61.36-12.98-1.21-17.93-4.41-5.85-3.78-9.27-9.57-9.64-16.3-.36-6.55,2.24-12.56,7.31-16.95,4.84-4.19,11.66-6.65,19.7-7.1,5.93-.33,11.48-.07,16.61.78-.68-4.08-2.06-7.32-4.11-9.66-2.82-3.22-7.19-4.86-12.98-4.9h-.16c-4.64,0-10.95,1.27-14.97,7.25l-9.66-6.5c5.38-8,14.12-12.4,24.63-12.4h.24c17.57.11,28.04,10.86,29.08,29.63.6.25,1.18.51,1.76.78,8.2,3.86,14.19,9.69,17.34,16.88,4.38,10.02,4.79,26.35-8.52,39.37-10.16,9.95-22.5,14.45-40.01,14.57h-.04,0Zm5.51-64.3c-1.33,0-2.68.04-4.06.12-10.1.57-16.4,5.2-16.04,11.78.38,6.9,7.99,10.11,15.31,9.72,6.74-.36,15.5-2.98,16.97-20.41-3.72-.79-7.81-1.21-12.18-1.21Z"/></svg>