<?xml version="1.0" encoding="UTF-8"?><svg id="Layer_1" xmlns="http://www.w3.org/2000/svg" viewBox="0 0 150 150"><defs><style>.cls-1{fill:#fff;stroke-width:0px;}</style></defs><path class="cls-1" d="m120.51,30.57c-10.1-6.56-16.2-17.79-16.21-29.83h-25.59l-.04,102.53c-.45,11.86-10.44,21.11-22.3,20.65-11.86-.45-21.11-10.44-20.65-22.3.44-11.55,9.94-20.68,21.49-20.67,2.15,0,4.29.34,6.35.99v-26.12c-2.1-.3-4.22-.45-6.35-.46-25.97,0-47.09,21.12-47.09,47.09.04,26,21.11,47.06,47.1,47.09,25.96,0,47.09-21.12,47.09-47.09v-51.99c10.37,7.46,22.82,11.47,35.59,11.45v-25.59c-6.88,0-13.62-2-19.38-5.76Z"/></svg>