<?xml version="1.0" encoding="utf-8"?>
<!-- Generator: Adobe Illustrator 26.0.1, SVG Export Plug-In . SVG Version: 6.00 Build 0)  -->
<svg version="1.1" id="Layer_1" xmlns="http://www.w3.org/2000/svg" xmlns:xlink="http://www.w3.org/1999/xlink" x="0px" y="0px"
	 viewBox="0 0 44 44" style="enable-background:new 0 0 44 44;" xml:space="preserve">
<style type="text/css">
	.st0{fill:#2C4762;}
</style>
<g id="Layer_1_00000013185341406270286950000001212303626742593438_">
</g>
<path class="st0" d="M40.2,0.1H3.8c-2.1,0-3.7,1.6-3.7,3.7v36.5c0,1.9,1.6,3.6,3.7,3.6h36.5c2.1,0,3.7-1.6,3.7-3.7V3.8
	C43.9,1.7,42.2,0.1,40.2,0.1z M24.7,35.8c-6,0.1-6.4-4.2-6.4-7.3v-9.2h-4.5v-3.6c5.5-1.9,5.2-4.3,5.5-6.4c0-0.3,0-1,0-1h4.5v7.3h5.5
	v3.7h-5.5v9.2c0,1.2,0.9,2.7,2.7,2.7c0.6,0,1.7,0,2.7-1l1,3.8C29.8,34.7,26.8,35.8,24.7,35.8z"/>
</svg>
