<?xml version="1.0" encoding="utf-8"?>
<!-- Generator: Adobe Illustrator 26.0.1, SVG Export Plug-In . SVG Version: 6.00 Build 0)  -->
<svg version="1.1" id="Layer_1" xmlns="http://www.w3.org/2000/svg" xmlns:xlink="http://www.w3.org/1999/xlink" x="0px" y="0px"
	 viewBox="0 0 44 44" style="enable-background:new 0 0 44 44;" xml:space="preserve">
<style type="text/css">
	.st0{fill:#00B3EC;}
</style>
<g id="Layer_1_00000081644443411748706450000015748979585511221893_">
</g>
<path class="st0" d="M35.8,0H8.3C3.7,0,0,3.7,0,8.3v27.5C0,40.3,3.7,44,8.3,44h27.5c4.5,0,8.2-3.7,8.2-8.2V8.3C44,3.7,40.3,0,35.8,0
	z M33.3,16.2c-0.3,1.4-2.2,6.5-5.1,11.2c-1.6,1.9-3.2,3.9-5.4,5.1c-0.8,0.6-2.3,1.1-3.4,0.7c-2-1-2.9-4.6-3.4-6.9
	c-0.3-1.4-0.7-2.8-1.1-4c-0.3-0.9-0.5-1.9-1-2.7c-0.8-1.4-2.1-0.2-3.3-0.3c-0.6,0-0.6-0.6-1-1v-0.1c1.8-1.4,3.4-3.2,5.5-4.4
	c0.6-0.4,1.7-0.8,2.7-0.5c0.8,0.2,1.5,1.3,1.8,2.3c0.3,1.1,0.6,2.2,0.7,3.4c0.4,1.9,0.2,4.7,1.6,6.2c1.5,1.6,2.6-0.7,3.3-1.8
	c0.6-0.9,1-2,1.1-3c0.2-2.4-0.9-2.6-3-2.5c1.1-3.8,4.5-5.3,5.6-5.4c1.3-0.1,3.2-0.1,4,1C33.4,14.1,33.4,15.2,33.3,16.2z"/>
</svg>
