<?xml version="1.0" encoding="utf-8"?>
<!-- Generator: Adobe Illustrator 26.0.1, SVG Export Plug-In . SVG Version: 6.00 Build 0)  -->
<svg version="1.1" id="Layer_1" xmlns="http://www.w3.org/2000/svg" xmlns:xlink="http://www.w3.org/1999/xlink" x="0px" y="0px"
	 viewBox="0 0 44 44" style="enable-background:new 0 0 44 44;" xml:space="preserve">
<style type="text/css">
	.st0{fill:#5181B8;}
</style>
<g id="Layer_1_00000180357935899542002350000000616495920621674418_">
</g>
<path class="st0" d="M0.1,0.1v44h44v-44H0.1z M35.4,31.8h-3.2c-1.2,0-1.5-1-3.7-3.2c-2-1.8-2.8-2.1-3.2-2.1c-0.7,0-0.8,0.1-0.8,1.1
	v2.9c0,0.8-0.2,1.2-2.3,1.2c-3.5,0-7.2-2.1-9.8-5.9c-4-5.5-5.1-9.8-5.1-10.6c0-0.6,0.1-1,1.1-1h3c0.9,0,1.1,0.4,1.4,1.2
	c1.7,4.5,4.3,8.5,5.4,8.5c0.4,0,0.5-0.1,0.5-1.2V18c-0.1-2.2-1.2-2.4-1.2-3.2c0-0.3,0.3-0.7,0.8-0.7h5.1c0.7,0,1,0.4,1,1.2v6.3
	c0,0.7,0.4,1,0.5,1c0.4,0,0.8-0.3,1.5-1c2.4-2.6,4-6.6,4-6.6c0.2-0.6,0.6-1,1.4-1H35c1,0,1.1,0.5,1,1.2c-0.4,1.9-4.2,7.4-4.4,7.8
	c-0.3,0.6-0.4,0.9,0,1.4c0.3,0.5,1.5,1.5,2.2,2.3c1.3,1.5,2.4,2.7,2.7,3.7S36.4,31.8,35.4,31.8z"/>
</svg>
