<?xml version="1.0" encoding="utf-8"?>
<!-- Generator: Adobe Illustrator 26.0.1, SVG Export Plug-In . SVG Version: 6.00 Build 0)  -->
<svg version="1.1" id="Layer_1" xmlns="http://www.w3.org/2000/svg" xmlns:xlink="http://www.w3.org/1999/xlink" x="0px" y="0px"
	 viewBox="0 0 44 44" style="enable-background:new 0 0 44 44;" xml:space="preserve">
<style type="text/css">
	.st0{fill-rule:evenodd;clip-rule:evenodd;fill:#0CC136;}
</style>
<g id="Layer_1_00000170997656598430371880000007489634542280122793_">
</g>
<g>
	<path class="st0" d="M12.5,27.5c1.3,2.3,3.5,4,5.9,5c-0.8-1.7-1.5-3.2-1.9-5H12.5z"/>
	<path class="st0" d="M12.5,16.5h4c0.4-1.8,1.1-3.3,1.9-4.9C15.9,12.5,13.9,14.2,12.5,16.5z"/>
	<path class="st0" d="M16,22c0-1,0-1.8,0.1-2.8h-4.7C11.1,20.1,11,21,11,22s0.1,1.9,0.4,2.8h4.7C16.1,23.8,16,23,16,22z"/>
	<path class="st0" d="M22,11c-1.1,1.6-2.1,3.6-2.6,5.5h5.2C24.1,14.4,23.1,12.6,22,11z"/>
	<path class="st0" d="M31.5,16.5c-1.3-2.3-3.5-4-5.9-4.9c0.8,1.6,1.5,3.1,1.9,4.9H31.5z"/>
	<path class="st0" d="M22,33c1.1-1.7,2.1-3.6,2.6-5.5h-5.2C19.9,29.6,20.9,31.3,22,33z"/>
	<path class="st0" d="M43.5,8.7c-0.3-2.8-0.7-4.8-1.7-6.2c-1.2-1.3-3.6-1.7-6.3-1.9C31.3,0.1,26.8,0,22,0c-4.7,0-9.2,0.1-13.4,0.6
		C5.4,0.8,3.2,1.4,2.1,2.5C1.2,3.9,0.9,5.8,0.6,8.7C0.1,12.4,0.1,17.3,0,22.3c0.1,4.9,0.3,9.9,0.5,13.4C0.8,38.9,1,40.3,2,41.5
		c1.3,1.1,3.3,1.9,6.5,2.2c4,0.4,7.9,0.3,13.5,0.4c5.1-0.1,9.8-0.1,13.5-0.4c3-0.1,5.2-1.1,6.3-2.2c0.9-1.1,1.4-2.8,1.7-5.6
		c0.4-3.6,0.4-8.6,0.5-13.6C43.9,17.4,43.8,12.7,43.5,8.7z M22,35.8c-7.6,0-13.8-6.2-13.8-13.8S14.4,8.2,22,8.2S35.8,14.4,35.8,22
		S29.6,35.8,22,35.8z"/>
	<path class="st0" d="M28.1,22c0,1,0,1.8-0.1,2.8h4.7c0.3-0.9,0.4-1.8,0.4-2.8s-0.1-2-0.4-2.8H28C28,20.2,28.1,21,28.1,22z"/>
	<path class="st0" d="M25.6,32.5c2.4-1,4.6-2.7,5.9-5h-4C27.1,29.3,26.4,31,25.6,32.5z"/>
	<path class="st0" d="M25.4,19.2h-6.5c-0.2,1-0.3,1.8-0.3,2.8s0.2,1.8,0.3,2.8h6.3c0.1-1,0.4-1.8,0.5-2.8
		C25.7,21,25.5,20.2,25.4,19.2z"/>
</g>
</svg>
