<?xml version="1.0" encoding="utf-8"?>
<!-- Generator: Adobe Illustrator 26.0.1, SVG Export Plug-In . SVG Version: 6.00 Build 0)  -->
<svg version="1.1" id="Layer_1" xmlns="http://www.w3.org/2000/svg" xmlns:xlink="http://www.w3.org/1999/xlink" x="0px" y="0px"
	 viewBox="0 0 44 44" style="enable-background:new 0 0 44 44;" xml:space="preserve">
<style type="text/css">
	.st0{fill-rule:evenodd;clip-rule:evenodd;fill:#25D366;}
</style>
<g id="Layer_1_00000170997656598430371880000007489634542280122793_">
</g>
<g>
	<path class="st0" d="M43.5,8.5c-0.3-2.6-0.7-4.8-1.7-6.1c-1.3-1.1-3.7-1.5-6.4-1.7c-4.2-0.5-8.8-0.6-13.5-0.6
		c-4.6,0-9.1,0-13.4,0.6C5.2,1,3.2,1.4,1.9,2.5C1.1,3.7,0.8,5.7,0.5,8.6C0,12.3,0,17.2-0.1,22.1c0.2,4.9,0.3,9.7,0.6,13.2
		c0.3,3.3,0.6,4.5,1.7,5.9c1.2,1.1,3.3,1.9,6.4,2.2c4,0.4,7.9,0.3,13.5,0.4c5-0.1,9.6-0.1,13.4-0.4c3.1-0.1,5.2-1.1,6.3-2.2
		c0.9-1.1,1.4-2.9,1.7-5.7C44,31.9,44,27,44.1,22C43.9,17.1,43.8,12.4,43.5,8.5z M34.7,21.2C34.7,28.3,29,34,21.9,34
		c-2.1,0-4.3-0.5-6.1-1.5L9,34.3l1.8-6.7c-1.1-1.9-1.7-4.2-1.7-6.4c0-7.1,5.7-12.8,12.8-12.8c3.4,0,6.7,1.4,9.1,3.8
		C33.5,14.7,34.9,17.9,34.7,21.2z"/>
	<path class="st0" d="M16.4,12.4c-5,3-6.5,9.6-3.3,14.6l0.3,0.5l-1.1,3.9l4-1l0.3,0.1C18.2,31.4,20,32,22,32c6,0,10.7-4.8,10.7-10.6
		c0-2.1-0.6-4-1.7-5.7C28,10.6,21.4,9.4,16.4,12.4z M28.2,25.8c-0.2,0.7-1.6,1.4-2.2,1.5c-0.6,0.2-1.3,0-2-0.1
		c-0.5-0.3-1.2-0.4-1.8-0.7c-3.2-1.4-5.3-4.6-5.4-4.9c-0.2-0.2-1.3-1.8-1.3-3.3s0.8-2.3,1.1-2.6c0.1-0.3,0.5-0.4,0.8-0.4
		c0.2,0,0.5,0,0.6,0s0.4,0,0.7,0.6c0.3,0.7,0.9,2.3,1,2.4c0.1,0.2,0.1,0.5,0,0.6c0,0.3-0.2,0.5-0.3,0.6c-0.1,0.2-0.3,0.5-0.4,0.6
		c-0.1,0.1-0.2,0.4-0.1,0.7c0.3,0.2,0.8,1.4,1.8,2.2c1.1,0.9,2.2,1.4,2.5,1.5c0.3,0.2,0.6,0.2,0.7-0.1c0.2-0.3,0.7-1,1-1.3
		c0.1-0.2,0.4-0.2,0.7-0.1c0.2,0,1.9,0.9,2.2,1c0.3,0.2,0.6,0.2,0.5,0.3C28.5,24.4,28.5,25.1,28.2,25.8z"/>
</g>
</svg>
