<?xml version="1.0" encoding="utf-8"?>
<!-- Generator: Adobe Illustrator 26.0.1, SVG Export Plug-In . SVG Version: 6.00 Build 0)  -->
<svg version="1.1" id="Layer_1" xmlns="http://www.w3.org/2000/svg" xmlns:xlink="http://www.w3.org/1999/xlink" x="0px" y="0px"
	 viewBox="0 0 44 44" style="enable-background:new 0 0 44 44;" xml:space="preserve">
<g id="Layer_1_00000170997656598430371880000007489634542280122793_">
</g>
<path d="M39.3,0.2H4.8c-2.6,0-4.7,2.1-4.7,4.7v34.5c0,2.7,2.1,4.8,4.7,4.8h34.5c2.6,0,4.7-2.1,4.7-4.7V4.8
	C44.1,2.2,41.9,0.2,39.3,0.2z M13.9,28.5H9.4c-0.5,0-0.8-0.5-0.5-1l4.8-8.5l0,0l-3.2-5.4c-0.3-0.5,0-1,0.5-1h4.5
	c0.5,0,1,0.3,1.2,0.8L20,19c-0.1,0.3-1.8,3.2-4.9,8.7C14.7,28.2,14.3,28.5,13.9,28.5L13.9,28.5z M35.5,7.5l-10,17.7l0,0l6.5,11.7
	c0.3,0.5,0,1-0.5,1h-4.5c-0.5,0-1-0.3-1.2-0.8l-6.5-11.8c0.3-0.4,3.6-6.3,10.2-17.9c0.3-0.5,0.7-0.8,1.2-0.8h4.7
	C35.5,6.5,35.8,6.9,35.5,7.5L35.5,7.5z"/>
</svg>
