<?xml version="1.0" encoding="utf-8"?>
<!-- Generator: Adobe Illustrator 26.0.1, SVG Export Plug-In . SVG Version: 6.00 Build 0)  -->
<svg version="1.1" id="Layer_1" xmlns="http://www.w3.org/2000/svg" xmlns:xlink="http://www.w3.org/1999/xlink" x="0px" y="0px"
	 viewBox="0 0 44 44" style="enable-background:new 0 0 44 44;" xml:space="preserve">
<style type="text/css">
	.st0{fill-rule:evenodd;clip-rule:evenodd;fill:#E70000;}
</style>
<desc>Created with Sketch.</desc>
<g id="Icon_x2F_Social_x2F_youtube-color">
	<path id="Shape" class="st0" d="M17.5,28.2l0-12.5L29.3,22L17.5,28.2z M43.3,13.6c0,0-0.4-3.1-1.7-4.4c-1.7-1.8-3.5-1.8-4.4-1.9
		C31.1,6.8,22,6.8,22,6.8h0c0,0-9.1,0-15.2,0.5C5.9,7.4,4.1,7.4,2.4,9.2c-1.3,1.4-1.7,4.4-1.7,4.4s-0.4,3.6-0.4,7.2v3.4
		c0,3.6,0.4,7.2,0.4,7.2s0.4,3.1,1.7,4.4c1.7,1.8,3.8,1.7,4.8,1.9C10.7,38,22,38.1,22,38.1s9.1,0,15.2-0.5c0.9-0.1,2.7-0.1,4.4-1.9
		c1.3-1.4,1.7-4.4,1.7-4.4s0.4-3.6,0.4-7.2v-3.4C43.8,17.2,43.3,13.6,43.3,13.6L43.3,13.6z"/>
</g>
</svg>
