<svg preserveAspectRatio="xMidYMid meet" viewBox="0 0 48 48" fill="none" xmlns="http://www.w3.org/2000/svg">
<path d="M23.6169 39.4126H23.6075C18.9399 39.3813 15.3516 37.8421 12.9396 34.8388C10.7967 32.164 9.68921 28.4443 9.65167 23.783V23.7611C9.68921 19.0966 10.7967 15.3801 12.9428 12.7053C15.3516 9.69888 18.9431 8.1597 23.6075 8.12842H23.6169H23.6263C27.2052 8.15345 30.1991 9.0732 32.5235 10.8627C34.7103 12.5457 36.2495 14.9421 37.0973 17.9892L34.4381 18.7306C32.999 13.5687 29.3576 10.9315 23.6138 10.8908C19.8222 10.919 16.9534 12.1109 15.0889 14.4322C13.3463 16.6064 12.4453 19.7474 12.4109 23.7705C12.4453 27.7936 13.3463 30.9346 15.092 33.1088C16.9565 35.4332 19.8253 36.6252 23.6169 36.6502C27.0363 36.6252 29.2981 35.8274 31.1783 33.9848C33.3244 31.8825 33.2869 29.3015 32.5986 27.7311C32.195 26.8051 31.4599 26.0355 30.4681 25.4505C30.2179 27.2118 29.6579 28.6383 28.7944 29.7145C27.6401 31.1504 26.0039 31.9357 23.9329 32.0483C22.3656 32.1327 20.8545 31.7636 19.6845 31.0034C18.2986 30.1055 17.4884 28.7353 17.4008 27.1398C17.3163 25.5881 17.9326 24.1615 19.1339 23.1229C20.282 22.1312 21.8963 21.5493 23.8046 21.4398C25.2093 21.3616 26.5263 21.4242 27.7402 21.6244C27.5775 20.6577 27.2521 19.8881 26.7641 19.3344C26.0946 18.5711 25.0591 18.1831 23.6889 18.1738C23.6764 18.1738 23.6638 18.1738 23.6513 18.1738C22.5501 18.1738 21.0547 18.4772 20.1037 19.8944L17.8137 18.3583C19.0901 16.4625 21.1611 15.4176 23.6513 15.4176C23.6701 15.4176 23.6889 15.4176 23.7076 15.4176C27.8716 15.4427 30.3524 17.9923 30.5995 22.4409C30.7403 22.5004 30.8811 22.5629 31.0187 22.6255C32.9615 23.539 34.3818 24.9218 35.1295 26.6267C36.1681 29.0012 36.2651 32.8711 33.1117 35.9588C30.6997 38.3176 27.7746 39.3844 23.6263 39.4126H23.6169ZM24.9246 24.1741C24.6086 24.1741 24.2895 24.1834 23.961 24.2022C21.5678 24.3367 20.0756 25.4348 20.16 26.9959C20.2476 28.6321 22.0527 29.3923 23.789 29.2984C25.3845 29.2139 27.4617 28.5914 27.8121 24.4619C26.9299 24.271 25.9632 24.1741 24.9246 24.1741Z" fill="black"/>
</svg>
